<svg xmlns="http://www.w3.org/2000/svg" xmlns:xlink="http://www.w3.org/1999/xlink" viewBox="0,0,256,256" width="24px" height="24px" fill-rule="nonzero"><g fill-opacity="0" fill="#dddddd" fill-rule="nonzero" stroke="none" stroke-width="1" stroke-linecap="butt" stroke-linejoin="miter" stroke-miterlimit="10" stroke-dasharray="" stroke-dashoffset="0" font-family="none" font-weight="none" font-size="none" text-anchor="none" style="mix-blend-mode: normal"><path d="M0,256v-256h256v256z" id="bgRectangle"></path></g><g fill="#ffffff" fill-rule="nonzero" stroke="none" stroke-width="1" stroke-linecap="butt" stroke-linejoin="miter" stroke-miterlimit="10" stroke-dasharray="" stroke-dashoffset="0" font-family="none" font-weight="none" font-size="none" text-anchor="none" style="mix-blend-mode: normal"><g transform="scale(10.66667,10.66667)"><path d="M19.6875,2l-11,1.5c-1,0.10156 -1.6875,1 -1.6875,2v10.28125c-0.46094,-0.08203 -0.96094,-0.08203 -1.5,0.03125c-1.89844,0.5 -3.5,2.17578 -3.5,3.875c0,1.69922 1.60156,2.71875 3.5,2.21875c1.89844,-0.5 3.5,-2.20703 3.5,-3.90625v-8.59375l11,-1.46875v6.78125c-0.46094,-0.08203 -0.96094,-0.04687 -1.5,0.09375c-1.89844,0.5 -3.5,2.17578 -3.5,3.875c0,1.69922 1.60156,2.71875 3.5,2.21875c1.89844,-0.5 3.5,-2.20703 3.5,-3.90625v-13c0,-1.19922 -1.11328,-2.10156 -2.3125,-2z"></path></g></g></svg>